<?xml version="1.0" encoding="UTF-8"?>
    <svg xmlns="http://www.w3.org/2000/svg" x="0" y="0" viewBox="0 0 1000 1000">
      <path d="M315.6 45.9c-60.8 24.6-115.3 60.9-162.1 107.6-46.8 46.8-83 101.3-107.6 162.1C22.1 374.3 10 436.4 10 500c0 63.6 12.1 125.7 35.9 184.4 24.7 60.8 60.9 115.3 107.6 162.1 46.8 46.8 101.3 83 162.1 107.6C374.3 977.9 436.4 990 500 990c63.6 0 125.7-12.1 184.4-35.9 60.8-24.7 115.3-60.9 162.1-107.6 46.8-46.8 83-101.3 107.6-162.1C977.9 625.7 990 563.6 990 500c0-63.6-12.1-125.7-35.9-184.4-24.6-60.8-60.9-115.3-107.6-162.1-46.8-46.8-101.3-83-162.1-107.6C625.7 22.1 563.7 10 500 10c-63.6 0-125.7 12.1-184.4 35.9zM132.5 706.3c-23.6-14.8-45.4-31.9-64.6-52C38.5 571.5 33.5 481.9 53 396.9c9.2-18.1 19.6-35.4 31.4-52.1 3.6-5.1 7-10.5 10.9-15.5l110.6 65.4v2.8c-.3 59.5 5.8 118.5 17.8 176.7 0 .3.1.4.1.7L138 709.4c-1.9-.9-3.7-2-5.5-3.1zm328.8 227.3c19.1 9.7 38.7 18 58.9 24.6C434.5 962 348 941.9 271.5 898l185.4 33c1.4 1 2.8 1.8 4.4 2.6zm-.7-33.5l-218.7-39c-25.6-31.1-48.6-64-68.4-99.1-5-8.9-10.7-17.6-14.9-27l85.7-134.3c1.9.5 4 1 6.4 1.6 53.6 14.3 108.1 24.5 163.1 32.5 3.2.4 5.9.8 8.2 1.1l102.7 177.6c-17.8 25-35.8 50-54.3 74.6-3.2 4.2-6.4 8.1-9.8 12zm363.9-75.6c-17.4 17.4-35.9 33.1-55.3 47.1-3.2-25.6-8.8-50.8-16.6-75.3l109.6-204.4c30.2-13.7 59.3-29.3 86.3-48.7 3.5-2.5 6.5-5.3 8.7-8.4-7.8 105.7-52.1 209.1-132.7 289.7zm-4.9-265.1c4.1 7.8 8.1 15.6 12.1 23.6L725.9 780.4c-.6.1-1.2.3-1.8.4-57.2 10.7-114.9 16.4-173 16.7L445.5 614.8c16.4-30.5 32.7-61.2 48.9-91.8 11-20.8 21.7-41.7 32.5-62.7l218.6-22.5c26.7 39.3 52.1 79.4 74.1 121.6zm-44.3-234.2c-10.4 27.4-21.5 54.5-32.5 81.7l-213 21.9c-2.5-3.4-5.2-6.7-8-9.8-25.1-28.5-50.5-56.8-75.7-85.2.2-.3.5-.5.7-.8l-30.6-30.6 59.3-178.5c4.1-1.1 8.2-2 12.4-2.4 32.2-3.3 64.5-7 96.8-8.9 19.8-1.1 39.7-1.7 59.8-.3l146.7 165.3c-5.1 16-10 32-15.9 47.6zm49.2-149.7c40.5 40.5 71.8 86.7 93.9 136-27.4-18.9-56.7-34.4-87.5-47-4.8-2-9.7-3.7-14.7-5.4L671.9 96.3c1-7 1.5-14.1 1.7-21.2C728.5 97.5 780 131 824.5 175.5zM353.1 66.6c.6.4.8.8 1.2.9 33 11.4 63 28.2 91.3 48.1l-55.4 166.8c-.3.1-.6.2-.8.3-11.3 4.7-22.9 8.9-34 14-46 20.9-90.8 44-133 71.8L113 303.8c.2-3.4.7-6.9 1.9-10 7.3-19.6 14.6-39.2 22.9-58.4 6.4-14.8 13.7-29 21.6-43 5.2-5.7 10.6-11.4 16.1-17C227.4 123.6 288.8 86.8 354.1 65c-.4.5-.7 1.1-1 1.6z"></path>
    </svg>